<?xml version="1.0" encoding="UTF-8" standalone="no"?>
<!DOCTYPE svg PUBLIC "-//W3C//DTD SVG 1.1//EN"
 "http://www.w3.org/Graphics/SVG/1.1/DTD/svg11.dtd">
<!-- Generated by graphviz version 15.1.0 (20260618.0150)
 -->
<!-- Title: ScholariumArchitecture Pages: 1 -->
<svg width="1318pt" height="479pt"
 viewBox="0.00 0.00 1318.00 479.00" xmlns="http://www.w3.org/2000/svg" xmlns:xlink="http://www.w3.org/1999/xlink">
<g id="graph0" class="graph" transform="scale(1 1) rotate(0) translate(18 461)">
<title>ScholariumArchitecture</title>
<polygon fill="#f7f8fc" stroke="none" points="-18,18 -18,-461 1300.46,-461 1300.46,18 -18,18"/>
<g id="clust1" class="cluster">
<title>cluster_people</title>
<polygon fill="#f7f8fc" stroke="#d9e0ef" points="8,-24 8,-298 146.91,-298 146.91,-24 8,-24"/>
<text xml:space="preserve" text-anchor="middle" x="77.45" y="-280.7" font-family="Arial" font-size="14.00" fill="#44506a">People</text>
</g>
<g id="clust2" class="cluster">
<title>cluster_product</title>
<polygon fill="#f7f8fc" stroke="#2157ee" stroke-width="1.6" points="181.91,-8 181.91,-293 549.48,-293 549.48,-8 181.91,-8"/>
<text xml:space="preserve" text-anchor="middle" x="365.69" y="-275.7" font-family="Arial" font-size="14.00" fill="#2157ee">Scholarium product boundary</text>
</g>
<g id="clust3" class="cluster">
<title>cluster_private</title>
<polygon fill="#f7f8fc" stroke="#6f42ff" stroke-width="1.6" points="686.98,-37 686.98,-435 1274.46,-435 1274.46,-37 686.98,-37"/>
<text xml:space="preserve" text-anchor="middle" x="980.72" y="-417.7" font-family="Arial" font-size="14.00" fill="#6f42ff">Private worker boundary</text>
</g>
<!-- learner -->
<g id="node1" class="node">
<title>learner</title>
<path fill="#ffffff" stroke="#d9e0ef" d="M94.28,-266C94.28,-266 60.62,-266 60.62,-266 54.62,-266 48.62,-260 48.62,-254 48.62,-254 48.62,-242 48.62,-242 48.62,-236 54.62,-230 60.62,-230 60.62,-230 94.28,-230 94.28,-230 100.28,-230 106.28,-236 106.28,-242 106.28,-242 106.28,-254 106.28,-254 106.28,-260 100.28,-266 94.28,-266"/>
<text xml:space="preserve" text-anchor="middle" x="77.45" y="-244.3" font-family="Arial" font-size="11.00" fill="#10172f">Learner</text>
</g>
<!-- web -->
<g id="node5" class="node">
<title>web</title>
<path fill="#eef3ff" stroke="#2157ee" d="M331.57,-159.7C331.57,-159.7 201.91,-159.7 201.91,-159.7 195.91,-159.7 189.91,-153.7 189.91,-147.7 189.91,-147.7 189.91,-130.3 189.91,-130.3 189.91,-124.3 195.91,-118.3 201.91,-118.3 201.91,-118.3 331.57,-118.3 331.57,-118.3 337.57,-118.3 343.57,-124.3 343.57,-130.3 343.57,-130.3 343.57,-147.7 343.57,-147.7 343.57,-153.7 337.57,-159.7 331.57,-159.7"/>
<text xml:space="preserve" text-anchor="middle" x="266.74" y="-142.05" font-family="Arial" font-size="11.00" fill="#10172f">Scholarium web</text>
<text xml:space="preserve" text-anchor="middle" x="266.74" y="-128.55" font-family="Arial" font-size="11.00" fill="#10172f">Signal + Teach + AlgoQuest</text>
</g>
<!-- learner&#45;&gt;web -->
<g id="edge1" class="edge">
<title>learner&#45;&gt;web</title>
<path fill="none" stroke="#63708a" stroke-width="1.2" d="M106.49,-235.41C119.03,-229.55 133.89,-222.27 146.91,-215 174.69,-199.49 204.89,-180.15 227.89,-164.86"/>
<polygon fill="#63708a" stroke="#63708a" stroke-width="1.2" points="229.12,-166.98 233.58,-161.05 226.4,-162.9 229.12,-166.98"/>
</g>
<!-- teacher -->
<g id="node2" class="node">
<title>teacher</title>
<path fill="#ffffff" stroke="#d9e0ef" d="M94.66,-200C94.66,-200 60.25,-200 60.25,-200 54.25,-200 48.25,-194 48.25,-188 48.25,-188 48.25,-176 48.25,-176 48.25,-170 54.25,-164 60.25,-164 60.25,-164 94.66,-164 94.66,-164 100.66,-164 106.66,-170 106.66,-176 106.66,-176 106.66,-188 106.66,-188 106.66,-194 100.66,-200 94.66,-200"/>
<text xml:space="preserve" text-anchor="middle" x="77.45" y="-178.3" font-family="Arial" font-size="11.00" fill="#10172f">Teacher</text>
</g>
<!-- teacher&#45;&gt;web -->
<g id="edge2" class="edge">
<title>teacher&#45;&gt;web</title>
<path fill="none" stroke="#63708a" stroke-width="1.2" d="M106.9,-175.47C126.84,-170.89 154.6,-164.52 181.35,-158.37"/>
<polygon fill="#63708a" stroke="#63708a" stroke-width="1.2" points="181.57,-160.84 187.84,-156.89 180.47,-156.06 181.57,-160.84"/>
</g>
<!-- guardian -->
<g id="node3" class="node">
<title>guardian</title>
<path fill="#ffffff" stroke="#d9e0ef" d="M97.66,-134C97.66,-134 57.25,-134 57.25,-134 51.25,-134 45.25,-128 45.25,-122 45.25,-122 45.25,-110 45.25,-110 45.25,-104 51.25,-98 57.25,-98 57.25,-98 97.66,-98 97.66,-98 103.66,-98 109.66,-104 109.66,-110 109.66,-110 109.66,-122 109.66,-122 109.66,-128 103.66,-134 97.66,-134"/>
<text xml:space="preserve" text-anchor="middle" x="77.45" y="-112.3" font-family="Arial" font-size="11.00" fill="#10172f">Guardian</text>
</g>
<!-- guardian&#45;&gt;web -->
<g id="edge3" class="edge">
<title>guardian&#45;&gt;web</title>
<path fill="none" stroke="#63708a" stroke-width="1.2" d="M109.8,-119.85C129.45,-122.26 155.79,-125.5 181.23,-128.62"/>
<polygon fill="#63708a" stroke="#63708a" stroke-width="1.2" points="180.76,-131.03 188,-129.45 181.35,-126.17 180.76,-131.03"/>
</g>
<!-- admin -->
<g id="node4" class="node">
<title>admin</title>
<path fill="#ffffff" stroke="#d9e0ef" d="M126.91,-68C126.91,-68 28,-68 28,-68 22,-68 16,-62 16,-56 16,-56 16,-44 16,-44 16,-38 22,-32 28,-32 28,-32 126.91,-32 126.91,-32 132.91,-32 138.91,-38 138.91,-44 138.91,-44 138.91,-56 138.91,-56 138.91,-62 132.91,-68 126.91,-68"/>
<text xml:space="preserve" text-anchor="middle" x="77.45" y="-46.3" font-family="Arial" font-size="11.00" fill="#10172f">School administration</text>
</g>
<!-- admin&#45;&gt;web -->
<g id="edge4" class="edge">
<title>admin&#45;&gt;web</title>
<path fill="none" stroke="#63708a" stroke-width="1.2" d="M117.26,-68.44C145.21,-81.72 183.23,-99.79 213.8,-114.32"/>
<polygon fill="#63708a" stroke="#63708a" stroke-width="1.2" points="212.38,-116.36 219.76,-117.15 214.49,-111.93 212.38,-116.36"/>
</g>
<!-- identity -->
<g id="node6" class="node">
<title>identity</title>
<path fill="#ffffff" stroke="#d9e0ef" d="M516.35,-57.7C516.35,-57.7 419.69,-57.7 419.69,-57.7 413.69,-57.7 407.69,-51.7 407.69,-45.7 407.69,-45.7 407.69,-28.3 407.69,-28.3 407.69,-22.3 413.69,-16.3 419.69,-16.3 419.69,-16.3 516.35,-16.3 516.35,-16.3 522.35,-16.3 528.35,-22.3 528.35,-28.3 528.35,-28.3 528.35,-45.7 528.35,-45.7 528.35,-51.7 522.35,-57.7 516.35,-57.7"/>
<text xml:space="preserve" text-anchor="middle" x="468.02" y="-40.05" font-family="Arial" font-size="11.00" fill="#10172f">Shared identity, roles</text>
<text xml:space="preserve" text-anchor="middle" x="468.02" y="-26.55" font-family="Arial" font-size="11.00" fill="#10172f">and purpose consent</text>
</g>
<!-- web&#45;&gt;identity -->
<g id="edge5" class="edge">
<title>web&#45;&gt;identity</title>
<path fill="none" stroke="#63708a" stroke-width="1.2" d="M307.91,-117.85C332.81,-104.81 365.48,-87.8 394.57,-73 401.56,-69.45 408.94,-65.73 416.22,-62.09"/>
<polygon fill="#63708a" stroke="#63708a" stroke-width="1.2" points="417.25,-64.32 422.42,-59 415.07,-59.93 417.25,-64.32"/>
</g>
<!-- d1 -->
<g id="node7" class="node">
<title>d1</title>
<path fill="#ffffff" stroke="#d9e0ef" d="M512.23,-124C512.23,-124 423.82,-124 423.82,-124 417.82,-124 411.82,-118 411.82,-112 411.82,-112 411.82,-100 411.82,-100 411.82,-94 417.82,-88 423.82,-88 423.82,-88 512.23,-88 512.23,-88 518.23,-88 524.23,-94 524.23,-100 524.23,-100 524.23,-112 524.23,-112 524.23,-118 518.23,-124 512.23,-124"/>
<text xml:space="preserve" text-anchor="middle" x="468.02" y="-102.3" font-family="Arial" font-size="11.00" fill="#10172f">D1 product records</text>
</g>
<!-- web&#45;&gt;d1 -->
<g id="edge6" class="edge">
<title>web&#45;&gt;d1</title>
<path fill="none" stroke="#63708a" stroke-width="1.2" d="M343.93,-126.38C363.37,-123.16 384.07,-119.74 402.84,-116.63"/>
<polygon fill="#63708a" stroke="#63708a" stroke-width="1.2" points="403.02,-119.08 409.53,-115.52 402.22,-114.25 403.02,-119.08"/>
</g>
<!-- r2 -->
<g id="node8" class="node">
<title>r2</title>
<path fill="#ffffff" stroke="#d9e0ef" d="M517.48,-190C517.48,-190 418.57,-190 418.57,-190 412.57,-190 406.57,-184 406.57,-178 406.57,-178 406.57,-166 406.57,-166 406.57,-160 412.57,-154 418.57,-154 418.57,-154 517.48,-154 517.48,-154 523.48,-154 529.48,-160 529.48,-166 529.48,-166 529.48,-178 529.48,-178 529.48,-184 523.48,-190 517.48,-190"/>
<text xml:space="preserve" text-anchor="middle" x="468.02" y="-168.3" font-family="Arial" font-size="11.00" fill="#10172f">R2 approved artifacts</text>
</g>
<!-- web&#45;&gt;r2 -->
<g id="edge7" class="edge">
<title>web&#45;&gt;r2</title>
<path fill="none" stroke="#63708a" stroke-width="1.2" d="M343.93,-151.62C361.69,-154.56 380.49,-157.67 397.92,-160.56"/>
<polygon fill="#63708a" stroke="#63708a" stroke-width="1.2" points="397.25,-162.93 404.56,-161.66 398.05,-158.1 397.25,-162.93"/>
</g>
<!-- gateway -->
<g id="node9" class="node">
<title>gateway</title>
<path fill="#eaf9ff" stroke="#23b8ff" d="M529.48,-261.7C529.48,-261.7 406.57,-261.7 406.57,-261.7 400.57,-261.7 394.57,-255.7 394.57,-249.7 394.57,-249.7 394.57,-232.3 394.57,-232.3 394.57,-226.3 400.57,-220.3 406.57,-220.3 406.57,-220.3 529.48,-220.3 529.48,-220.3 535.48,-220.3 541.48,-226.3 541.48,-232.3 541.48,-232.3 541.48,-249.7 541.48,-249.7 541.48,-255.7 535.48,-261.7 529.48,-261.7"/>
<text xml:space="preserve" text-anchor="middle" x="468.02" y="-244.05" font-family="Arial" font-size="11.00" fill="#10172f">Internal capability gateway</text>
<text xml:space="preserve" text-anchor="middle" x="468.02" y="-230.55" font-family="Arial" font-size="11.00" fill="#10172f">versioned envelopes</text>
</g>
<!-- web&#45;&gt;gateway -->
<g id="edge8" class="edge">
<title>web&#45;&gt;gateway</title>
<path fill="none" stroke="#63708a" stroke-width="1.2" d="M307.91,-160.15C332.81,-173.19 365.48,-190.2 394.57,-205 401.56,-208.55 408.94,-212.27 416.22,-215.91"/>
<polygon fill="#63708a" stroke="#63708a" stroke-width="1.2" points="415.07,-218.07 422.42,-219 417.25,-213.68 415.07,-218.07"/>
</g>
<!-- gate5 -->
<g id="node10" class="node">
<title>gate5</title>
<path fill="#f2eeff" stroke="#6f42ff" d="M813.39,-261.7C813.39,-261.7 706.98,-261.7 706.98,-261.7 700.98,-261.7 694.98,-255.7 694.98,-249.7 694.98,-249.7 694.98,-232.3 694.98,-232.3 694.98,-226.3 700.98,-220.3 706.98,-220.3 706.98,-220.3 813.39,-220.3 813.39,-220.3 819.39,-220.3 825.39,-226.3 825.39,-232.3 825.39,-232.3 825.39,-249.7 825.39,-249.7 825.39,-255.7 819.39,-261.7 813.39,-261.7"/>
<text xml:space="preserve" text-anchor="middle" x="760.18" y="-244.05" font-family="Arial" font-size="11.00" fill="#10172f">FfeD Gate5</text>
<text xml:space="preserve" text-anchor="middle" x="760.18" y="-230.55" font-family="Arial" font-size="11.00" fill="#10172f">verify before invocation</text>
</g>
<!-- gateway&#45;&gt;gate5 -->
<g id="edge9" class="edge">
<title>gateway&#45;&gt;gate5</title>
<path fill="none" stroke="#63708a" stroke-width="1.2" d="M541.87,-241C585.94,-241 641.94,-241 686.06,-241"/>
<polygon fill="#63708a" stroke="#63708a" stroke-width="1.2" points="685.9,-243.45 692.9,-241 685.9,-238.55 685.9,-243.45"/>
<text xml:space="preserve" text-anchor="middle" x="618.23" y="-242.95" font-family="Arial" font-size="9.00" fill="#44506a">pseudonymous envelope</text>
</g>
<!-- synthia -->
<g id="node11" class="node">
<title>synthia</title>
<path fill="#ffffff" stroke="#d9e0ef" d="M1034.67,-86.7C1034.67,-86.7 978.51,-86.7 978.51,-86.7 972.51,-86.7 966.51,-80.7 966.51,-74.7 966.51,-74.7 966.51,-57.3 966.51,-57.3 966.51,-51.3 972.51,-45.3 978.51,-45.3 978.51,-45.3 1034.67,-45.3 1034.67,-45.3 1040.67,-45.3 1046.67,-51.3 1046.67,-57.3 1046.67,-57.3 1046.67,-74.7 1046.67,-74.7 1046.67,-80.7 1040.67,-86.7 1034.67,-86.7"/>
<text xml:space="preserve" text-anchor="middle" x="1006.59" y="-69.05" font-family="Arial" font-size="11.00" fill="#10172f">Synthia</text>
<text xml:space="preserve" text-anchor="middle" x="1006.59" y="-55.55" font-family="Arial" font-size="11.00" fill="#10172f">classification</text>
</g>
<!-- gate5&#45;&gt;synthia -->
<g id="edge10" class="edge">
<title>gate5&#45;&gt;synthia</title>
<path fill="none" stroke="#63708a" stroke-width="1.2" d="M778.44,-220.08C795.38,-200.39 822.65,-170.9 850.39,-150 884,-124.67 926.23,-102.34 958.15,-87.08"/>
<polygon fill="#63708a" stroke="#63708a" stroke-width="1.2" points="959.1,-89.34 964.39,-84.14 957.01,-84.91 959.1,-89.34"/>
</g>
<!-- memory -->
<g id="node12" class="node">
<title>memory</title>
<path fill="#ffffff" stroke="#d9e0ef" d="M1035.8,-157.7C1035.8,-157.7 977.39,-157.7 977.39,-157.7 971.39,-157.7 965.39,-151.7 965.39,-145.7 965.39,-145.7 965.39,-128.3 965.39,-128.3 965.39,-122.3 971.39,-116.3 977.39,-116.3 977.39,-116.3 1035.8,-116.3 1035.8,-116.3 1041.8,-116.3 1047.8,-122.3 1047.8,-128.3 1047.8,-128.3 1047.8,-145.7 1047.8,-145.7 1047.8,-151.7 1041.8,-157.7 1035.8,-157.7"/>
<text xml:space="preserve" text-anchor="middle" x="1006.59" y="-140.05" font-family="Arial" font-size="11.00" fill="#10172f">MemoryLake</text>
<text xml:space="preserve" text-anchor="middle" x="1006.59" y="-126.55" font-family="Arial" font-size="11.00" fill="#10172f">trace index</text>
</g>
<!-- gate5&#45;&gt;memory -->
<g id="edge11" class="edge">
<title>gate5&#45;&gt;memory</title>
<path fill="none" stroke="#63708a" stroke-width="1.2" d="M787.58,-219.99C804.67,-207.23 827.87,-191.44 850.39,-181 884.41,-165.22 925.31,-153.91 956.58,-146.71"/>
<polygon fill="#63708a" stroke="#63708a" stroke-width="1.2" points="957.07,-149.11 963.36,-145.19 955.99,-144.33 957.07,-149.11"/>
</g>
<!-- hippo -->
<g id="node13" class="node">
<title>hippo</title>
<path fill="#ffffff" stroke="#d9e0ef" d="M1254.46,-157.7C1254.46,-157.7 1197.55,-157.7 1197.55,-157.7 1191.55,-157.7 1185.55,-151.7 1185.55,-145.7 1185.55,-145.7 1185.55,-128.3 1185.55,-128.3 1185.55,-122.3 1191.55,-116.3 1197.55,-116.3 1197.55,-116.3 1254.46,-116.3 1254.46,-116.3 1260.46,-116.3 1266.46,-122.3 1266.46,-128.3 1266.46,-128.3 1266.46,-145.7 1266.46,-145.7 1266.46,-151.7 1260.46,-157.7 1254.46,-157.7"/>
<text xml:space="preserve" text-anchor="middle" x="1226" y="-140.05" font-family="Arial" font-size="11.00" fill="#10172f">HippoRAG</text>
<text xml:space="preserve" text-anchor="middle" x="1226" y="-126.55" font-family="Arial" font-size="11.00" fill="#10172f">retrieval only</text>
</g>
<!-- gate5&#45;&gt;hippo -->
<g id="edge12" class="edge">
<title>gate5&#45;&gt;hippo</title>
<path fill="none" stroke="#63708a" stroke-width="1.2" d="M825.79,-228.33C904.98,-212.52 1043.16,-184 1160.55,-155 1165.81,-153.7 1171.28,-152.28 1176.73,-150.82"/>
<polygon fill="#63708a" stroke="#63708a" stroke-width="1.2" points="1177.35,-153.19 1183.47,-148.99 1176.07,-148.46 1177.35,-153.19"/>
</g>
<!-- fnp -->
<g id="node14" class="node">
<title>fnp</title>
<path fill="#ffffff" stroke="#d9e0ef" d="M1056.42,-261.7C1056.42,-261.7 956.76,-261.7 956.76,-261.7 950.76,-261.7 944.76,-255.7 944.76,-249.7 944.76,-249.7 944.76,-232.3 944.76,-232.3 944.76,-226.3 950.76,-220.3 956.76,-220.3 956.76,-220.3 1056.42,-220.3 1056.42,-220.3 1062.42,-220.3 1068.42,-226.3 1068.42,-232.3 1068.42,-232.3 1068.42,-249.7 1068.42,-249.7 1068.42,-255.7 1062.42,-261.7 1056.42,-261.7"/>
<text xml:space="preserve" text-anchor="middle" x="1006.59" y="-244.05" font-family="Arial" font-size="11.00" fill="#10172f">FNP&#45;QNN</text>
<text xml:space="preserve" text-anchor="middle" x="1006.59" y="-230.55" font-family="Arial" font-size="11.00" fill="#10172f">research&#45;gated signal</text>
</g>
<!-- gate5&#45;&gt;fnp -->
<g id="edge13" class="edge">
<title>gate5&#45;&gt;fnp</title>
<path fill="none" stroke="#63708a" stroke-width="1.2" d="M825.72,-241C859.62,-241 901.2,-241 935.84,-241"/>
<polygon fill="#63708a" stroke="#63708a" stroke-width="1.2" points="935.67,-243.45 942.67,-241 935.67,-238.55 935.67,-243.45"/>
</g>
<!-- media -->
<g id="node15" class="node">
<title>media</title>
<path fill="#ffffff" stroke="#d9e0ef" d="M1054.55,-332.7C1054.55,-332.7 958.64,-332.7 958.64,-332.7 952.64,-332.7 946.64,-326.7 946.64,-320.7 946.64,-320.7 946.64,-303.3 946.64,-303.3 946.64,-297.3 952.64,-291.3 958.64,-291.3 958.64,-291.3 1054.55,-291.3 1054.55,-291.3 1060.55,-291.3 1066.55,-297.3 1066.55,-303.3 1066.55,-303.3 1066.55,-320.7 1066.55,-320.7 1066.55,-326.7 1060.55,-332.7 1054.55,-332.7"/>
<text xml:space="preserve" text-anchor="middle" x="1006.59" y="-315.05" font-family="Arial" font-size="11.00" fill="#10172f">QuaNTecH&#45;ViD</text>
<text xml:space="preserve" text-anchor="middle" x="1006.59" y="-301.55" font-family="Arial" font-size="11.00" fill="#10172f">user&#45;triggered media</text>
</g>
<!-- gate5&#45;&gt;media -->
<g id="edge14" class="edge">
<title>gate5&#45;&gt;media</title>
<path fill="none" stroke="#63708a" stroke-width="1.2" d="M825.65,-259.38C853.96,-267.48 887.59,-277.16 917.89,-286 924.46,-287.92 931.31,-289.93 938.16,-291.94"/>
<polygon fill="#63708a" stroke="#63708a" stroke-width="1.2" points="937.02,-294.16 944.43,-293.8 938.41,-289.46 937.02,-294.16"/>
</g>
<!-- signer -->
<g id="node16" class="node">
<title>signer</title>
<path fill="#ffffff" stroke="#d9e0ef" d="M1058.3,-403.7C1058.3,-403.7 954.89,-403.7 954.89,-403.7 948.89,-403.7 942.89,-397.7 942.89,-391.7 942.89,-391.7 942.89,-374.3 942.89,-374.3 942.89,-368.3 948.89,-362.3 954.89,-362.3 954.89,-362.3 1058.3,-362.3 1058.3,-362.3 1064.3,-362.3 1070.3,-368.3 1070.3,-374.3 1070.3,-374.3 1070.3,-391.7 1070.3,-391.7 1070.3,-397.7 1064.3,-403.7 1058.3,-403.7"/>
<text xml:space="preserve" text-anchor="middle" x="1006.59" y="-386.05" font-family="Arial" font-size="11.00" fill="#10172f">Bouncy Castle sidecar</text>
<text xml:space="preserve" text-anchor="middle" x="1006.59" y="-372.55" font-family="Arial" font-size="11.00" fill="#10172f">receipt digest signing</text>
</g>
<!-- gate5&#45;&gt;signer -->
<g id="edge17" class="edge">
<title>gate5&#45;&gt;signer</title>
<path fill="none" stroke="#63708a" stroke-width="1.2" d="M803.12,-262.17C835.28,-278.94 880.37,-303.61 917.89,-328.5 929.63,-336.29 931.15,-340.21 942.89,-348 947.71,-351.2 952.83,-354.38 958,-357.46"/>
<polygon fill="#63708a" stroke="#63708a" stroke-width="1.2" points="956.72,-359.55 964.01,-360.96 959.19,-355.31 956.72,-359.55"/>
<text xml:space="preserve" text-anchor="middle" x="884.14" y="-330.45" font-family="Arial" font-size="9.00" fill="#44506a">terminal digest</text>
</g>
<!-- synthia&#45;&gt;hippo -->
<g id="edge15" class="edge">
<title>synthia&#45;&gt;hippo</title>
<path fill="none" stroke="#63708a" stroke-width="1.2" d="M1046.97,-78.86C1083.52,-90.8 1138.03,-108.6 1177.1,-121.36"/>
<polygon fill="#63708a" stroke="#63708a" stroke-width="1.2" points="1176.05,-123.59 1183.47,-123.43 1177.57,-118.93 1176.05,-123.59"/>
<text xml:space="preserve" text-anchor="middle" x="1127.92" y="-115.98" font-family="Arial" font-size="9.00" fill="#44506a">approved graph</text>
</g>
<!-- memory&#45;&gt;hippo -->
<g id="edge16" class="edge">
<title>memory&#45;&gt;hippo</title>
<path fill="none" stroke="#63708a" stroke-width="1.2" d="M1048.23,-137C1084.68,-137 1138.22,-137 1176.81,-137"/>
<polygon fill="#63708a" stroke="#63708a" stroke-width="1.2" points="1176.48,-139.45 1183.48,-137 1176.48,-134.55 1176.48,-139.45"/>
<text xml:space="preserve" text-anchor="middle" x="1127.92" y="-138.95" font-family="Arial" font-size="9.00" fill="#44506a">trace records</text>
</g>
<!-- signer&#45;&gt;gate5 -->
<g id="edge18" class="edge">
<title>signer&#45;&gt;gate5</title>
<path fill="none" stroke="#63708a" stroke-width="1.2" d="M942.56,-375.01C912.94,-369.16 878.14,-359.12 850.39,-342 820.57,-323.6 795.1,-292.15 779.11,-269.23"/>
<polygon fill="#63708a" stroke="#63708a" stroke-width="1.2" points="781.25,-268.01 775.28,-263.61 777.2,-270.78 781.25,-268.01"/>
<text xml:space="preserve" text-anchor="middle" x="884.14" y="-370.49" font-family="Arial" font-size="9.00" fill="#44506a">Ed25519 receipt</text>
</g>
<!-- people_anchor -->
</g>
</svg>
