<?xml version="1.0" encoding="UTF-8" standalone="no"?>
<!DOCTYPE svg PUBLIC "-//W3C//DTD SVG 1.1//EN"
 "http://www.w3.org/Graphics/SVG/1.1/DTD/svg11.dtd">
<!-- Generated by graphviz version 15.1.0 (20260618.0150)
 -->
<!-- Title: ScholariumSecurity Pages: 1 -->
<svg width="678pt" height="696pt"
 viewBox="0.00 0.00 678.00 696.00" xmlns="http://www.w3.org/2000/svg" xmlns:xlink="http://www.w3.org/1999/xlink">
<g id="graph0" class="graph" transform="scale(1 1) rotate(0) translate(18 678.2)">
<title>ScholariumSecurity</title>
<polygon fill="#f7f8fc" stroke="none" points="-18,18 -18,-678.2 660.16,-678.2 660.16,18 -18,18"/>
<!-- browser -->
<g id="node1" class="node">
<title>browser</title>
<path fill="#ffffff" stroke="#d9e0ef" d="M255.16,-660.2C255.16,-660.2 122.5,-660.2 122.5,-660.2 116.5,-660.2 110.5,-654.2 110.5,-648.2 110.5,-648.2 110.5,-630.8 110.5,-630.8 110.5,-624.8 116.5,-618.8 122.5,-618.8 122.5,-618.8 255.16,-618.8 255.16,-618.8 261.16,-618.8 267.16,-624.8 267.16,-630.8 267.16,-630.8 267.16,-648.2 267.16,-648.2 267.16,-654.2 261.16,-660.2 255.16,-660.2"/>
<text xml:space="preserve" text-anchor="middle" x="188.83" y="-642.55" font-family="Arial" font-size="11.00" fill="#10172f">Browser</text>
<text xml:space="preserve" text-anchor="middle" x="188.83" y="-629.05" font-family="Arial" font-size="11.00" fill="#10172f">TLS + authenticated session</text>
</g>
<!-- consent -->
<g id="node2" class="node">
<title>consent</title>
<path fill="#ffffff" stroke="#d9e0ef" d="M265.66,-575.1C265.66,-575.1 112,-575.1 112,-575.1 106,-575.1 100,-569.1 100,-563.1 100,-563.1 100,-551.1 100,-551.1 100,-545.1 106,-539.1 112,-539.1 112,-539.1 265.66,-539.1 265.66,-539.1 271.66,-539.1 277.66,-545.1 277.66,-551.1 277.66,-551.1 277.66,-563.1 277.66,-563.1 277.66,-569.1 271.66,-575.1 265.66,-575.1"/>
<text xml:space="preserve" text-anchor="middle" x="188.83" y="-553.4" font-family="Arial" font-size="11.00" fill="#10172f">Role + tenant + purpose consent</text>
</g>
<!-- browser&#45;&gt;consent -->
<g id="edge1" class="edge">
<title>browser&#45;&gt;consent</title>
<path fill="none" stroke="#63708a" stroke-width="1.2" d="M188.83,-618.63C188.83,-608.21 188.83,-595.31 188.83,-584.11"/>
<polygon fill="#63708a" stroke="#63708a" stroke-width="1.2" points="191.28,-584.38 188.83,-577.38 186.38,-584.38 191.28,-584.38"/>
</g>
<!-- pseudo -->
<g id="node3" class="node">
<title>pseudo</title>
<path fill="#ffffff" stroke="#d9e0ef" d="M246.91,-495.4C246.91,-495.4 130.75,-495.4 130.75,-495.4 124.75,-495.4 118.75,-489.4 118.75,-483.4 118.75,-483.4 118.75,-466 118.75,-466 118.75,-460 124.75,-454 130.75,-454 130.75,-454 246.91,-454 246.91,-454 252.91,-454 258.91,-460 258.91,-466 258.91,-466 258.91,-483.4 258.91,-483.4 258.91,-489.4 252.91,-495.4 246.91,-495.4"/>
<text xml:space="preserve" text-anchor="middle" x="188.83" y="-477.75" font-family="Arial" font-size="11.00" fill="#10172f">Keyed pseudonymization</text>
<text xml:space="preserve" text-anchor="middle" x="188.83" y="-464.25" font-family="Arial" font-size="11.00" fill="#10172f">minimum envelope</text>
</g>
<!-- consent&#45;&gt;pseudo -->
<g id="edge2" class="edge">
<title>consent&#45;&gt;pseudo</title>
<path fill="none" stroke="#63708a" stroke-width="1.2" d="M188.83,-538.65C188.83,-528.67 188.83,-515.89 188.83,-504.46"/>
<polygon fill="#63708a" stroke="#63708a" stroke-width="1.2" points="191.28,-504.48 188.83,-497.48 186.38,-504.48 191.28,-504.48"/>
</g>
<!-- gate5 -->
<g id="node4" class="node">
<title>gate5</title>
<path fill="#eef3ff" stroke="#2157ee" d="M386.66,-403.5C386.66,-403.5 203,-403.5 203,-403.5 197,-403.5 191,-397.5 191,-391.5 191,-391.5 191,-360.6 191,-360.6 191,-354.6 197,-348.6 203,-348.6 203,-348.6 386.66,-348.6 386.66,-348.6 392.66,-348.6 398.66,-354.6 398.66,-360.6 398.66,-360.6 398.66,-391.5 398.66,-391.5 398.66,-397.5 392.66,-403.5 386.66,-403.5"/>
<text xml:space="preserve" text-anchor="middle" x="294.83" y="-385.85" font-family="Arial" font-size="11.00" fill="#10172f">Gate5 admission</text>
<text xml:space="preserve" text-anchor="middle" x="294.83" y="-372.35" font-family="Arial" font-size="11.00" fill="#10172f">schema + signature + manifest + quota</text>
<text xml:space="preserve" text-anchor="middle" x="294.83" y="-358.85" font-family="Arial" font-size="11.00" fill="#10172f">expiry + nonce + revocation</text>
</g>
<!-- pseudo&#45;&gt;gate5 -->
<g id="edge3" class="edge">
<title>pseudo&#45;&gt;gate5</title>
<path fill="none" stroke="#63708a" stroke-width="1.2" d="M210.79,-453.67C224.82,-440.89 243.32,-424.01 259.4,-409.36"/>
<polygon fill="#63708a" stroke="#63708a" stroke-width="1.2" points="260.79,-411.4 264.31,-404.88 257.49,-407.78 260.79,-411.4"/>
</g>
<!-- deny -->
<g id="node5" class="node">
<title>deny</title>
<path fill="#fff0f0" stroke="#c85151" d="M141.66,-295.4C141.66,-295.4 12,-295.4 12,-295.4 6,-295.4 0,-289.4 0,-283.4 0,-283.4 0,-271.4 0,-271.4 0,-265.4 6,-259.4 12,-259.4 12,-259.4 141.66,-259.4 141.66,-259.4 147.66,-259.4 153.66,-265.4 153.66,-271.4 153.66,-271.4 153.66,-283.4 153.66,-283.4 153.66,-289.4 147.66,-295.4 141.66,-295.4"/>
<text xml:space="preserve" text-anchor="middle" x="76.83" y="-273.7" font-family="Arial" font-size="11.00" fill="#10172f">Fail closed before execution</text>
</g>
<!-- gate5&#45;&gt;deny -->
<g id="edge4" class="edge">
<title>gate5&#45;&gt;deny</title>
<path fill="none" stroke="#63708a" stroke-width="1.2" d="M234.1,-348.13C199.38,-332.73 156.46,-313.7 124.23,-299.42"/>
<polygon fill="#63708a" stroke="#63708a" stroke-width="1.2" points="125.34,-297.22 117.94,-296.63 123.35,-301.7 125.34,-297.22"/>
<text xml:space="preserve" text-anchor="middle" x="199.33" y="-320.05" font-family="Arial" font-size="9.00" fill="#44506a">invalid</text>
</g>
<!-- worker -->
<g id="node6" class="node">
<title>worker</title>
<path fill="#f2eeff" stroke="#6f42ff" d="M390.78,-298.1C390.78,-298.1 198.88,-298.1 198.88,-298.1 192.88,-298.1 186.88,-292.1 186.88,-286.1 186.88,-286.1 186.88,-268.7 186.88,-268.7 186.88,-262.7 192.88,-256.7 198.88,-256.7 198.88,-256.7 390.78,-256.7 390.78,-256.7 396.78,-256.7 402.78,-262.7 402.78,-268.7 402.78,-268.7 402.78,-286.1 402.78,-286.1 402.78,-292.1 396.78,-298.1 390.78,-298.1"/>
<text xml:space="preserve" text-anchor="middle" x="294.83" y="-280.45" font-family="Arial" font-size="11.00" fill="#10172f">Isolated private worker</text>
<text xml:space="preserve" text-anchor="middle" x="294.83" y="-266.95" font-family="Arial" font-size="11.00" fill="#10172f">bounded process, network, files and time</text>
</g>
<!-- gate5&#45;&gt;worker -->
<g id="edge5" class="edge">
<title>gate5&#45;&gt;worker</title>
<path fill="none" stroke="#63708a" stroke-width="1.2" d="M294.83,-348.13C294.83,-335.33 294.83,-320.02 294.83,-307.01"/>
<polygon fill="#63708a" stroke="#63708a" stroke-width="1.2" points="297.28,-307.25 294.83,-300.25 292.38,-307.25 297.28,-307.25"/>
<text xml:space="preserve" text-anchor="middle" x="312.45" y="-320.05" font-family="Arial" font-size="9.00" fill="#44506a">admitted</text>
</g>
<!-- logs -->
<g id="node10" class="node">
<title>logs</title>
<path fill="#ffffff" stroke="#d9e0ef" d="M630.16,-298.1C630.16,-298.1 521.5,-298.1 521.5,-298.1 515.5,-298.1 509.5,-292.1 509.5,-286.1 509.5,-286.1 509.5,-268.7 509.5,-268.7 509.5,-262.7 515.5,-256.7 521.5,-256.7 521.5,-256.7 630.16,-256.7 630.16,-256.7 636.16,-256.7 642.16,-262.7 642.16,-268.7 642.16,-268.7 642.16,-286.1 642.16,-286.1 642.16,-292.1 636.16,-298.1 630.16,-298.1"/>
<text xml:space="preserve" text-anchor="middle" x="575.83" y="-280.45" font-family="Arial" font-size="11.00" fill="#10172f">Datadog</text>
<text xml:space="preserve" text-anchor="middle" x="575.83" y="-266.95" font-family="Arial" font-size="11.00" fill="#10172f">technical metadata only</text>
</g>
<!-- gate5&#45;&gt;logs -->
<g id="edge9" class="edge">
<title>gate5&#45;&gt;logs</title>
<path fill="none" stroke="#63708a" stroke-width="1.2" d="M373.1,-348.13C415.8,-333.44 468.09,-315.46 508.88,-301.43"/>
<polygon fill="#63708a" stroke="#63708a" stroke-width="1.2" points="509.59,-303.77 515.42,-299.18 508,-299.14 509.59,-303.77"/>
<text xml:space="preserve" text-anchor="middle" x="488.9" y="-320.05" font-family="Arial" font-size="9.00" fill="#44506a">status and latency</text>
</g>
<!-- receipt -->
<g id="node7" class="node">
<title>receipt</title>
<path fill="#ffffff" stroke="#d9e0ef" d="M355.16,-215.7C355.16,-215.7 234.5,-215.7 234.5,-215.7 228.5,-215.7 222.5,-209.7 222.5,-203.7 222.5,-203.7 222.5,-186.3 222.5,-186.3 222.5,-180.3 228.5,-174.3 234.5,-174.3 234.5,-174.3 355.16,-174.3 355.16,-174.3 361.16,-174.3 367.16,-180.3 367.16,-186.3 367.16,-186.3 367.16,-203.7 367.16,-203.7 367.16,-209.7 361.16,-215.7 355.16,-215.7"/>
<text xml:space="preserve" text-anchor="middle" x="294.83" y="-198.05" font-family="Arial" font-size="11.00" fill="#10172f">Canonical terminal receipt</text>
<text xml:space="preserve" text-anchor="middle" x="294.83" y="-184.55" font-family="Arial" font-size="11.00" fill="#10172f">no learner content</text>
</g>
<!-- worker&#45;&gt;receipt -->
<g id="edge6" class="edge">
<title>worker&#45;&gt;receipt</title>
<path fill="none" stroke="#63708a" stroke-width="1.2" d="M294.83,-256.53C294.83,-246.86 294.83,-235.07 294.83,-224.47"/>
<polygon fill="#63708a" stroke="#63708a" stroke-width="1.2" points="297.28,-224.74 294.83,-217.74 292.38,-224.74 297.28,-224.74"/>
</g>
<!-- worker&#45;&gt;logs -->
<g id="edge10" class="edge">
<title>worker&#45;&gt;logs</title>
<path fill="none" stroke="#63708a" stroke-width="1.2" d="M403.07,-277.4C435.58,-277.4 470.52,-277.4 500.41,-277.4"/>
<polygon fill="#63708a" stroke="#63708a" stroke-width="1.2" points="500.29,-279.85 507.29,-277.4 500.29,-274.95 500.29,-279.85"/>
<text xml:space="preserve" text-anchor="middle" x="456.14" y="-282.35" font-family="Arial" font-size="9.00" fill="#44506a">technical outcome</text>
</g>
<!-- bc -->
<g id="node8" class="node">
<title>bc</title>
<path fill="#fff8e6" stroke="#ffc857" d="M361.91,-133.3C361.91,-133.3 227.75,-133.3 227.75,-133.3 221.75,-133.3 215.75,-127.3 215.75,-121.3 215.75,-121.3 215.75,-103.9 215.75,-103.9 215.75,-97.9 221.75,-91.9 227.75,-91.9 227.75,-91.9 361.91,-91.9 361.91,-91.9 367.91,-91.9 373.91,-97.9 373.91,-103.9 373.91,-103.9 373.91,-121.3 373.91,-121.3 373.91,-127.3 367.91,-133.3 361.91,-133.3"/>
<text xml:space="preserve" text-anchor="middle" x="294.83" y="-115.65" font-family="Arial" font-size="11.00" fill="#10172f">Bouncy Castle sidecar</text>
<text xml:space="preserve" text-anchor="middle" x="294.83" y="-102.15" font-family="Arial" font-size="11.00" fill="#10172f">Ed25519 signs receipt digest</text>
</g>
<!-- receipt&#45;&gt;bc -->
<g id="edge7" class="edge">
<title>receipt&#45;&gt;bc</title>
<path fill="none" stroke="#63708a" stroke-width="1.2" d="M294.83,-174.13C294.83,-164.46 294.83,-152.67 294.83,-142.07"/>
<polygon fill="#63708a" stroke="#63708a" stroke-width="1.2" points="297.28,-142.34 294.83,-135.34 292.38,-142.34 297.28,-142.34"/>
</g>
<!-- audit -->
<g id="node9" class="node">
<title>audit</title>
<path fill="#ffffff" stroke="#d9e0ef" d="M362.66,-41.4C362.66,-41.4 227,-41.4 227,-41.4 221,-41.4 215,-35.4 215,-29.4 215,-29.4 215,-12 215,-12 215,-6 221,0 227,0 227,0 362.66,0 362.66,0 368.66,0 374.66,-6 374.66,-12 374.66,-12 374.66,-29.4 374.66,-29.4 374.66,-35.4 368.66,-41.4 362.66,-41.4"/>
<text xml:space="preserve" text-anchor="middle" x="294.83" y="-23.75" font-family="Arial" font-size="11.00" fill="#10172f">Replay, tamper, diff, recovery</text>
<text xml:space="preserve" text-anchor="middle" x="294.83" y="-10.25" font-family="Arial" font-size="11.00" fill="#10172f">and interoperability evidence</text>
</g>
<!-- bc&#45;&gt;audit -->
<g id="edge8" class="edge">
<title>bc&#45;&gt;audit</title>
<path fill="none" stroke="#63708a" stroke-width="1.2" d="M294.83,-91.65C294.83,-79.43 294.83,-63.59 294.83,-50.08"/>
<polygon fill="#63708a" stroke="#63708a" stroke-width="1.2" points="297.28,-50.41 294.83,-43.41 292.38,-50.41 297.28,-50.41"/>
<text xml:space="preserve" text-anchor="middle" x="323.7" y="-63.35" font-family="Arial" font-size="9.00" fill="#44506a">signed receipt</text>
</g>
<!-- geometry -->
<g id="node11" class="node">
<title>geometry</title>
<path fill="#ffffff" stroke="#d9e0ef" d="M473.78,-577.8C473.78,-577.8 329.88,-577.8 329.88,-577.8 323.88,-577.8 317.88,-571.8 317.88,-565.8 317.88,-565.8 317.88,-548.4 317.88,-548.4 317.88,-542.4 323.88,-536.4 329.88,-536.4 329.88,-536.4 473.78,-536.4 473.78,-536.4 479.78,-536.4 485.78,-542.4 485.78,-548.4 485.78,-548.4 485.78,-565.8 485.78,-565.8 485.78,-571.8 479.78,-577.8 473.78,-577.8"/>
<text xml:space="preserve" text-anchor="middle" x="401.83" y="-560.15" font-family="Arial" font-size="11.00" fill="#10172f">Quasicrystal and Hilbert values</text>
<text xml:space="preserve" text-anchor="middle" x="401.83" y="-546.65" font-family="Arial" font-size="11.00" fill="#10172f">structural locators only</text>
</g>
<!-- crypto_wall -->
<g id="node12" class="node">
<title>crypto_wall</title>
<path fill="#eaf9ff" stroke="#23b8ff" d="M499.28,-495.4C499.28,-495.4 304.38,-495.4 304.38,-495.4 298.38,-495.4 292.38,-489.4 292.38,-483.4 292.38,-483.4 292.38,-466 292.38,-466 292.38,-460 298.38,-454 304.38,-454 304.38,-454 499.28,-454 499.28,-454 505.28,-454 511.28,-460 511.28,-466 511.28,-466 511.28,-483.4 511.28,-483.4 511.28,-489.4 505.28,-495.4 499.28,-495.4"/>
<text xml:space="preserve" text-anchor="middle" x="401.83" y="-477.75" font-family="Arial" font-size="11.00" fill="#10172f">Crypto wall</text>
<text xml:space="preserve" text-anchor="middle" x="401.83" y="-464.25" font-family="Arial" font-size="11.00" fill="#10172f">never KDF, AAD, key, vault or auth secret</text>
</g>
<!-- geometry&#45;&gt;crypto_wall -->
<g id="edge11" class="edge">
<title>geometry&#45;&gt;crypto_wall</title>
<path fill="none" stroke="#63708a" stroke-width="1.2" d="M401.83,-536.23C401.83,-526.56 401.83,-514.77 401.83,-504.17"/>
<polygon fill="#63708a" stroke="#63708a" stroke-width="1.2" points="404.28,-504.44 401.83,-497.44 399.38,-504.44 404.28,-504.44"/>
</g>
<!-- crypto_wall&#45;&gt;gate5 -->
<g id="edge12" class="edge">
<title>crypto_wall&#45;&gt;gate5</title>
<path fill="none" stroke="#63708a" stroke-width="1.2" stroke-dasharray="5,2" d="M379.66,-453.67C365.5,-440.89 346.82,-424.01 330.6,-409.36"/>
<polygon fill="#63708a" stroke="#63708a" stroke-width="1.2" points="332.47,-407.75 325.63,-404.87 329.18,-411.38 332.47,-407.75"/>
<text xml:space="preserve" text-anchor="middle" x="395.24" y="-425.45" font-family="Arial" font-size="9.00" fill="#44506a">proof metadata only</text>
</g>
</g>
</svg>
