<?xml version="1.0" encoding="UTF-8" standalone="no"?>
<!DOCTYPE svg PUBLIC "-//W3C//DTD SVG 1.1//EN"
 "http://www.w3.org/Graphics/SVG/1.1/DTD/svg11.dtd">
<!-- Generated by graphviz version 15.1.0 (20260618.0150)
 -->
<!-- Title: ScholariumRagFlow Pages: 1 -->
<svg width="411pt" height="744pt"
 viewBox="0.00 0.00 411.00 744.00" xmlns="http://www.w3.org/2000/svg" xmlns:xlink="http://www.w3.org/1999/xlink">
<g id="graph0" class="graph" transform="scale(1 1) rotate(0) translate(18 725.7)">
<title>ScholariumRagFlow</title>
<polygon fill="#f7f8fc" stroke="none" points="-18,18 -18,-725.7 392.78,-725.7 392.78,18 -18,18"/>
<!-- source -->
<g id="node1" class="node">
<title>source</title>
<path fill="#ffffff" stroke="#d9e0ef" d="M252.66,-707.7C252.66,-707.7 114.75,-707.7 114.75,-707.7 108.75,-707.7 102.75,-701.7 102.75,-695.7 102.75,-695.7 102.75,-678.3 102.75,-678.3 102.75,-672.3 108.75,-666.3 114.75,-666.3 114.75,-666.3 252.66,-666.3 252.66,-666.3 258.66,-666.3 264.66,-672.3 264.66,-678.3 264.66,-678.3 264.66,-695.7 264.66,-695.7 264.66,-701.7 258.66,-707.7 252.66,-707.7"/>
<text xml:space="preserve" text-anchor="middle" x="183.7" y="-690.05" font-family="Arial" font-size="11.00" fill="#10172f">Primary or institutional source</text>
<text xml:space="preserve" text-anchor="middle" x="183.7" y="-676.55" font-family="Arial" font-size="11.00" fill="#10172f">URL + author + date + rights</text>
</g>
<!-- card -->
<g id="node2" class="node">
<title>card</title>
<path fill="#eef3ff" stroke="#2157ee" d="M260.53,-627.3C260.53,-627.3 106.88,-627.3 106.88,-627.3 100.88,-627.3 94.87,-621.3 94.87,-615.3 94.87,-615.3 94.87,-597.9 94.87,-597.9 94.87,-591.9 100.87,-585.9 106.87,-585.9 106.87,-585.9 260.53,-585.9 260.53,-585.9 266.53,-585.9 272.53,-591.9 272.53,-597.9 272.53,-597.9 272.53,-615.3 272.53,-615.3 272.53,-621.3 266.53,-627.3 260.53,-627.3"/>
<text xml:space="preserve" text-anchor="middle" x="183.7" y="-609.65" font-family="Arial" font-size="11.00" fill="#10172f">synthia.education.source&#45;card.v1</text>
<text xml:space="preserve" text-anchor="middle" x="183.7" y="-596.15" font-family="Arial" font-size="11.00" fill="#10172f">provenance required</text>
</g>
<!-- source&#45;&gt;card -->
<g id="edge1" class="edge">
<title>source&#45;&gt;card</title>
<path fill="none" stroke="#63708a" stroke-width="1.2" d="M183.7,-665.81C183.7,-656.85 183.7,-646.14 183.7,-636.36"/>
<polygon fill="#63708a" stroke="#63708a" stroke-width="1.2" points="186.16,-636.54 183.71,-629.54 181.26,-636.54 186.16,-636.54"/>
</g>
<!-- classify -->
<g id="node3" class="node">
<title>classify</title>
<path fill="#ffffff" stroke="#d9e0ef" d="M264.66,-546.9C264.66,-546.9 102.75,-546.9 102.75,-546.9 96.75,-546.9 90.75,-540.9 90.75,-534.9 90.75,-534.9 90.75,-517.5 90.75,-517.5 90.75,-511.5 96.75,-505.5 102.75,-505.5 102.75,-505.5 264.66,-505.5 264.66,-505.5 270.66,-505.5 276.66,-511.5 276.66,-517.5 276.66,-517.5 276.66,-534.9 276.66,-534.9 276.66,-540.9 270.66,-546.9 264.66,-546.9"/>
<text xml:space="preserve" text-anchor="middle" x="183.7" y="-529.25" font-family="Arial" font-size="11.00" fill="#10172f">Synthia classification</text>
<text xml:space="preserve" text-anchor="middle" x="183.7" y="-515.75" font-family="Arial" font-size="11.00" fill="#10172f">entities + relations + contradictions</text>
</g>
<!-- card&#45;&gt;classify -->
<g id="edge2" class="edge">
<title>card&#45;&gt;classify</title>
<path fill="none" stroke="#63708a" stroke-width="1.2" d="M183.7,-585.41C183.7,-576.45 183.7,-565.74 183.7,-555.96"/>
<polygon fill="#63708a" stroke="#63708a" stroke-width="1.2" points="186.16,-556.14 183.71,-549.14 181.26,-556.14 186.16,-556.14"/>
</g>
<!-- approved -->
<g id="node4" class="node">
<title>approved</title>
<path fill="#eaf9ff" stroke="#23b8ff" d="M85.41,-457C85.41,-457 12,-457 12,-457 6,-457 0,-451 0,-445 0,-445 0,-433 0,-433 0,-427 6,-421 12,-421 12,-421 85.41,-421 85.41,-421 91.41,-421 97.41,-427 97.41,-433 97.41,-433 97.41,-445 97.41,-445 97.41,-451 91.41,-457 85.41,-457"/>
<text xml:space="preserve" text-anchor="middle" x="48.7" y="-435.3" font-family="Arial" font-size="11.00" fill="#10172f">Approved graph</text>
</g>
<!-- classify&#45;&gt;approved -->
<g id="edge3" class="edge">
<title>classify&#45;&gt;approved</title>
<path fill="none" stroke="#63708a" stroke-width="1.2" d="M151.71,-505.01C131.21,-492.07 104.59,-475.27 83.55,-461.99"/>
<polygon fill="#63708a" stroke="#63708a" stroke-width="1.2" points="85.12,-460.09 77.89,-458.42 82.51,-464.23 85.12,-460.09"/>
<text xml:space="preserve" text-anchor="middle" x="137.88" y="-477.95" font-family="Arial" font-size="9.00" fill="#44506a">admitted</text>
</g>
<!-- preparation -->
<g id="node5" class="node">
<title>preparation</title>
<path fill="#fff8e6" stroke="#ffc857" d="M225.28,-457C225.28,-457 142.12,-457 142.12,-457 136.12,-457 130.12,-451 130.12,-445 130.12,-445 130.12,-433 130.12,-433 130.12,-427 136.12,-421 142.12,-421 142.12,-421 225.28,-421 225.28,-421 231.28,-421 237.28,-427 237.28,-433 237.28,-433 237.28,-445 237.28,-445 237.28,-451 231.28,-457 225.28,-457"/>
<text xml:space="preserve" text-anchor="middle" x="183.7" y="-435.3" font-family="Arial" font-size="11.00" fill="#10172f">Preparation graph</text>
</g>
<!-- classify&#45;&gt;preparation -->
<g id="edge4" class="edge">
<title>classify&#45;&gt;preparation</title>
<path fill="none" stroke="#63708a" stroke-width="1.2" d="M183.7,-505.01C183.7,-493.37 183.7,-478.6 183.7,-466.09"/>
<polygon fill="#63708a" stroke="#63708a" stroke-width="1.2" points="186.16,-466.27 183.71,-459.27 181.26,-466.27 186.16,-466.27"/>
<text xml:space="preserve" text-anchor="middle" x="200.58" y="-477.95" font-family="Arial" font-size="9.00" fill="#44506a">pending</text>
</g>
<!-- quarantine -->
<g id="node6" class="node">
<title>quarantine</title>
<path fill="#fff0f0" stroke="#c85151" d="M362.78,-457C362.78,-457 282.62,-457 282.62,-457 276.62,-457 270.62,-451 270.62,-445 270.62,-445 270.62,-433 270.62,-433 270.62,-427 276.62,-421 282.62,-421 282.62,-421 362.78,-421 362.78,-421 368.78,-421 374.78,-427 374.78,-433 374.78,-433 374.78,-445 374.78,-445 374.78,-451 368.78,-457 362.78,-457"/>
<text xml:space="preserve" text-anchor="middle" x="322.7" y="-435.3" font-family="Arial" font-size="11.00" fill="#10172f">Quarantine graph</text>
</g>
<!-- classify&#45;&gt;quarantine -->
<g id="edge5" class="edge">
<title>classify&#45;&gt;quarantine</title>
<path fill="none" stroke="#63708a" stroke-width="1.2" d="M216.65,-505.01C237.76,-492.07 265.17,-475.27 286.83,-461.99"/>
<polygon fill="#63708a" stroke="#63708a" stroke-width="1.2" points="288,-464.15 292.68,-458.4 285.44,-459.97 288,-464.15"/>
<text xml:space="preserve" text-anchor="middle" x="303.53" y="-477.95" font-family="Arial" font-size="9.00" fill="#44506a">rejected or uncertain</text>
</g>
<!-- memory -->
<g id="node7" class="node">
<title>memory</title>
<path fill="#ffffff" stroke="#d9e0ef" d="M248.16,-372.5C248.16,-372.5 119.25,-372.5 119.25,-372.5 113.25,-372.5 107.25,-366.5 107.25,-360.5 107.25,-360.5 107.25,-343.1 107.25,-343.1 107.25,-337.1 113.25,-331.1 119.25,-331.1 119.25,-331.1 248.16,-331.1 248.16,-331.1 254.16,-331.1 260.16,-337.1 260.16,-343.1 260.16,-343.1 260.16,-360.5 260.16,-360.5 260.16,-366.5 254.16,-372.5 248.16,-372.5"/>
<text xml:space="preserve" text-anchor="middle" x="183.7" y="-354.85" font-family="Arial" font-size="11.00" fill="#10172f">MemoryLake.index_records</text>
<text xml:space="preserve" text-anchor="middle" x="183.7" y="-341.35" font-family="Arial" font-size="11.00" fill="#10172f">partitioned trace store</text>
</g>
<!-- approved&#45;&gt;memory -->
<g id="edge6" class="edge">
<title>approved&#45;&gt;memory</title>
<path fill="none" stroke="#63708a" stroke-width="1.2" d="M76.35,-420.55C96.03,-408.13 122.76,-391.26 144.62,-377.47"/>
<polygon fill="#63708a" stroke="#63708a" stroke-width="1.2" points="145.68,-379.69 150.3,-373.88 143.07,-375.55 145.68,-379.69"/>
</g>
<!-- preparation&#45;&gt;memory -->
<g id="edge7" class="edge">
<title>preparation&#45;&gt;memory</title>
<path fill="none" stroke="#63708a" stroke-width="1.2" stroke-dasharray="5,2" d="M183.7,-420.76C183.7,-409.46 183.7,-394.42 183.7,-381.36"/>
<polygon fill="#63708a" stroke="#63708a" stroke-width="1.2" points="186.16,-381.52 183.71,-374.52 181.26,-381.52 186.16,-381.52"/>
<text xml:space="preserve" text-anchor="middle" x="199.83" y="-393.45" font-family="Arial" font-size="9.00" fill="#44506a">isolated</text>
</g>
<!-- quarantine&#45;&gt;memory -->
<g id="edge8" class="edge">
<title>quarantine&#45;&gt;memory</title>
<path fill="none" stroke="#63708a" stroke-width="1.2" stroke-dasharray="5,2" d="M294.24,-420.55C273.97,-408.13 246.46,-391.26 223.95,-377.47"/>
<polygon fill="#63708a" stroke="#63708a" stroke-width="1.2" points="225.32,-375.43 218.07,-373.86 222.76,-379.61 225.32,-375.43"/>
<text xml:space="preserve" text-anchor="middle" x="277.65" y="-393.45" font-family="Arial" font-size="9.00" fill="#44506a">isolated</text>
</g>
<!-- retrieve -->
<g id="node8" class="node">
<title>retrieve</title>
<path fill="#f2eeff" stroke="#6f42ff" d="M249.28,-282.6C249.28,-282.6 118.12,-282.6 118.12,-282.6 112.12,-282.6 106.12,-276.6 106.12,-270.6 106.12,-270.6 106.12,-253.2 106.12,-253.2 106.12,-247.2 112.12,-241.2 118.12,-241.2 118.12,-241.2 249.28,-241.2 249.28,-241.2 255.28,-241.2 261.28,-247.2 261.28,-253.2 261.28,-253.2 261.28,-270.6 261.28,-270.6 261.28,-276.6 255.28,-282.6 249.28,-282.6"/>
<text xml:space="preserve" text-anchor="middle" x="183.7" y="-264.95" font-family="Arial" font-size="11.00" fill="#10172f">synthia.hipporag&#45;retrieval.v1</text>
<text xml:space="preserve" text-anchor="middle" x="183.7" y="-251.45" font-family="Arial" font-size="11.00" fill="#10172f">retrieve_dpr only</text>
</g>
<!-- memory&#45;&gt;retrieve -->
<g id="edge9" class="edge">
<title>memory&#45;&gt;retrieve</title>
<path fill="none" stroke="#63708a" stroke-width="1.2" d="M183.7,-330.85C183.7,-319.25 183.7,-304.42 183.7,-291.58"/>
<polygon fill="#63708a" stroke="#63708a" stroke-width="1.2" points="186.16,-291.89 183.71,-284.89 181.26,-291.89 186.16,-291.89"/>
<text xml:space="preserve" text-anchor="middle" x="230.58" y="-303.55" font-family="Arial" font-size="9.00" fill="#44506a">approved partition only</text>
</g>
<!-- passages -->
<g id="node9" class="node">
<title>passages</title>
<path fill="#ffffff" stroke="#d9e0ef" d="M190.16,-202.2C190.16,-202.2 43.25,-202.2 43.25,-202.2 37.25,-202.2 31.25,-196.2 31.25,-190.2 31.25,-190.2 31.25,-172.8 31.25,-172.8 31.25,-166.8 37.25,-160.8 43.25,-160.8 43.25,-160.8 190.16,-160.8 190.16,-160.8 196.16,-160.8 202.16,-166.8 202.16,-172.8 202.16,-172.8 202.16,-190.2 202.16,-190.2 202.16,-196.2 196.16,-202.2 190.16,-202.2"/>
<text xml:space="preserve" text-anchor="middle" x="116.7" y="-184.55" font-family="Arial" font-size="11.00" fill="#10172f">Questions + passages + scores</text>
<text xml:space="preserve" text-anchor="middle" x="116.7" y="-171.05" font-family="Arial" font-size="11.00" fill="#10172f">with source trail</text>
</g>
<!-- retrieve&#45;&gt;passages -->
<g id="edge10" class="edge">
<title>retrieve&#45;&gt;passages</title>
<path fill="none" stroke="#63708a" stroke-width="1.2" d="M166.45,-240.71C158.24,-231.11 148.32,-219.5 139.51,-209.18"/>
<polygon fill="#63708a" stroke="#63708a" stroke-width="1.2" points="141.49,-207.73 135.08,-204 137.77,-210.92 141.49,-207.73"/>
</g>
<!-- language -->
<g id="node10" class="node">
<title>language</title>
<path fill="#ffffff" stroke="#d9e0ef" d="M237.28,-121.8C237.28,-121.8 130.12,-121.8 130.12,-121.8 124.12,-121.8 118.12,-115.8 118.12,-109.8 118.12,-109.8 118.12,-92.4 118.12,-92.4 118.12,-86.4 124.12,-80.4 130.12,-80.4 130.12,-80.4 237.28,-80.4 237.28,-80.4 243.28,-80.4 249.28,-86.4 249.28,-92.4 249.28,-92.4 249.28,-109.8 249.28,-109.8 249.28,-115.8 243.28,-121.8 237.28,-121.8"/>
<text xml:space="preserve" text-anchor="middle" x="183.7" y="-104.15" font-family="Arial" font-size="11.00" fill="#10172f">Codex or Gemini</text>
<text xml:space="preserve" text-anchor="middle" x="183.7" y="-90.65" font-family="Arial" font-size="11.00" fill="#10172f">user&#45;facing explanation</text>
</g>
<!-- retrieve&#45;&gt;language -->
<!-- passages&#45;&gt;language -->
<g id="edge11" class="edge">
<title>passages&#45;&gt;language</title>
<path fill="none" stroke="#63708a" stroke-width="1.2" d="M133.96,-160.31C142.17,-150.71 152.09,-139.1 160.9,-128.78"/>
<polygon fill="#63708a" stroke="#63708a" stroke-width="1.2" points="162.64,-130.52 165.33,-123.6 158.92,-127.33 162.64,-130.52"/>
</g>
<!-- human -->
<g id="node11" class="node">
<title>human</title>
<path fill="#eaf9ff" stroke="#23b8ff" d="M259.03,-41.4C259.03,-41.4 108.38,-41.4 108.38,-41.4 102.38,-41.4 96.37,-35.4 96.37,-29.4 96.37,-29.4 96.37,-12 96.37,-12 96.37,-6 102.37,0 108.37,0 108.37,0 259.03,0 259.03,0 265.03,0 271.03,-6 271.03,-12 271.03,-12 271.03,-29.4 271.03,-29.4 271.03,-35.4 265.03,-41.4 259.03,-41.4"/>
<text xml:space="preserve" text-anchor="middle" x="183.7" y="-23.75" font-family="Arial" font-size="11.00" fill="#10172f">Learner or educator</text>
<text xml:space="preserve" text-anchor="middle" x="183.7" y="-10.25" font-family="Arial" font-size="11.00" fill="#10172f">human authority remains human</text>
</g>
<!-- language&#45;&gt;human -->
<g id="edge12" class="edge">
<title>language&#45;&gt;human</title>
<path fill="none" stroke="#63708a" stroke-width="1.2" d="M183.7,-79.91C183.7,-70.95 183.7,-60.24 183.7,-50.46"/>
<polygon fill="#63708a" stroke="#63708a" stroke-width="1.2" points="186.16,-50.64 183.71,-43.64 181.26,-50.64 186.16,-50.64"/>
</g>
</g>
</svg>
