<?xml version="1.0" encoding="UTF-8" standalone="no"?>
<!DOCTYPE svg PUBLIC "-//W3C//DTD SVG 1.1//EN"
 "http://www.w3.org/Graphics/SVG/1.1/DTD/svg11.dtd">
<!-- Generated by graphviz version 15.1.0 (20260618.0150)
 -->
<!-- Title: ScholariumDataLifecycle Pages: 1 -->
<svg width="439pt" height="944pt"
 viewBox="0.00 0.00 439.00 944.00" xmlns="http://www.w3.org/2000/svg" xmlns:xlink="http://www.w3.org/1999/xlink">
<g id="graph0" class="graph" transform="scale(1 1) rotate(0) translate(18 925.5)">
<title>ScholariumDataLifecycle</title>
<polygon fill="#f7f8fc" stroke="none" points="-18,18 -18,-925.5 420.73,-925.5 420.73,18 -18,18"/>
<!-- purpose -->
<g id="node1" class="node">
<title>purpose</title>
<path fill="#eef3ff" stroke="#2157ee" d="M319.1,-907.5C319.1,-907.5 155,-907.5 155,-907.5 149,-907.5 143,-901.5 143,-895.5 143,-895.5 143,-883.5 143,-883.5 143,-877.5 149,-871.5 155,-871.5 155,-871.5 319.1,-871.5 319.1,-871.5 325.1,-871.5 331.1,-877.5 331.1,-883.5 331.1,-883.5 331.1,-895.5 331.1,-895.5 331.1,-901.5 325.1,-907.5 319.1,-907.5"/>
<text xml:space="preserve" text-anchor="middle" x="237.05" y="-885.8" font-family="Arial" font-size="11.00" fill="#10172f">Declared purpose + active consent</text>
</g>
<!-- raw -->
<g id="node2" class="node">
<title>raw</title>
<path fill="#ffffff" stroke="#d9e0ef" d="M300.35,-821C300.35,-821 173.75,-821 173.75,-821 167.75,-821 161.75,-815 161.75,-809 161.75,-809 161.75,-791.6 161.75,-791.6 161.75,-785.6 167.75,-779.6 173.75,-779.6 173.75,-779.6 300.35,-779.6 300.35,-779.6 306.35,-779.6 312.35,-785.6 312.35,-791.6 312.35,-791.6 312.35,-809 312.35,-809 312.35,-815 306.35,-821 300.35,-821"/>
<text xml:space="preserve" text-anchor="middle" x="237.05" y="-803.35" font-family="Arial" font-size="11.00" fill="#10172f">Raw learner interaction</text>
<text xml:space="preserve" text-anchor="middle" x="237.05" y="-789.85" font-family="Arial" font-size="11.00" fill="#10172f">private and purpose&#45;bound</text>
</g>
<!-- purpose&#45;&gt;raw -->
<g id="edge1" class="edge">
<title>purpose&#45;&gt;raw</title>
<path fill="none" stroke="#63708a" stroke-width="1.2" d="M237.05,-871.27C237.05,-859.46 237.05,-843.52 237.05,-829.84"/>
<polygon fill="#63708a" stroke="#63708a" stroke-width="1.2" points="239.5,-830.06 237.05,-823.06 234.6,-830.06 239.5,-830.06"/>
<text xml:space="preserve" text-anchor="middle" x="248.3" y="-842.95" font-family="Arial" font-size="9.00" fill="#44506a">admit</text>
</g>
<!-- observation -->
<g id="node3" class="node">
<title>observation</title>
<path fill="#ffffff" stroke="#d9e0ef" d="M297.35,-738.6C297.35,-738.6 176.75,-738.6 176.75,-738.6 170.75,-738.6 164.75,-732.6 164.75,-726.6 164.75,-726.6 164.75,-709.2 164.75,-709.2 164.75,-703.2 170.75,-697.2 176.75,-697.2 176.75,-697.2 297.35,-697.2 297.35,-697.2 303.35,-697.2 309.35,-703.2 309.35,-709.2 309.35,-709.2 309.35,-726.6 309.35,-726.6 309.35,-732.6 303.35,-738.6 297.35,-738.6"/>
<text xml:space="preserve" text-anchor="middle" x="237.05" y="-720.95" font-family="Arial" font-size="11.00" fill="#10172f">Observation</text>
<text xml:space="preserve" text-anchor="middle" x="237.05" y="-707.45" font-family="Arial" font-size="11.00" fill="#10172f">evidence + context + time</text>
</g>
<!-- raw&#45;&gt;observation -->
<g id="edge2" class="edge">
<title>raw&#45;&gt;observation</title>
<path fill="none" stroke="#63708a" stroke-width="1.2" d="M237.05,-779.43C237.05,-769.76 237.05,-757.97 237.05,-747.37"/>
<polygon fill="#63708a" stroke="#63708a" stroke-width="1.2" points="239.5,-747.64 237.05,-740.64 234.6,-747.64 239.5,-747.64"/>
</g>
<!-- inference -->
<g id="node4" class="node">
<title>inference</title>
<path fill="#ffffff" stroke="#d9e0ef" d="M176.1,-656.2C176.1,-656.2 12,-656.2 12,-656.2 6,-656.2 0,-650.2 0,-644.2 0,-644.2 0,-626.8 0,-626.8 0,-620.8 6,-614.8 12,-614.8 12,-614.8 176.1,-614.8 176.1,-614.8 182.1,-614.8 188.1,-620.8 188.1,-626.8 188.1,-626.8 188.1,-644.2 188.1,-644.2 188.1,-650.2 182.1,-656.2 176.1,-656.2"/>
<text xml:space="preserve" text-anchor="middle" x="94.05" y="-638.55" font-family="Arial" font-size="11.00" fill="#10172f">Algorithmic hypothesis</text>
<text xml:space="preserve" text-anchor="middle" x="94.05" y="-625.05" font-family="Arial" font-size="11.00" fill="#10172f">confidence + contradiction + expiry</text>
</g>
<!-- observation&#45;&gt;inference -->
<g id="edge3" class="edge">
<title>observation&#45;&gt;inference</title>
<path fill="none" stroke="#63708a" stroke-width="1.2" d="M201.33,-696.82C181.97,-685.93 157.88,-672.39 137.44,-660.9"/>
<polygon fill="#63708a" stroke="#63708a" stroke-width="1.2" points="138.69,-658.79 131.39,-657.49 136.29,-663.06 138.69,-658.79"/>
</g>
<!-- private_graph -->
<g id="node8" class="node">
<title>private_graph</title>
<path fill="#f2eeff" stroke="#6f42ff" d="M352.48,-317.1C352.48,-317.1 253.62,-317.1 253.62,-317.1 247.62,-317.1 241.62,-311.1 241.62,-305.1 241.62,-305.1 241.62,-287.7 241.62,-287.7 241.62,-281.7 247.62,-275.7 253.62,-275.7 253.62,-275.7 352.48,-275.7 352.48,-275.7 358.48,-275.7 364.48,-281.7 364.48,-287.7 364.48,-287.7 364.48,-305.1 364.48,-305.1 364.48,-311.1 358.48,-317.1 352.48,-317.1"/>
<text xml:space="preserve" text-anchor="middle" x="303.05" y="-299.45" font-family="Arial" font-size="11.00" fill="#10172f">Private learner graph</text>
<text xml:space="preserve" text-anchor="middle" x="303.05" y="-285.95" font-family="Arial" font-size="11.00" fill="#10172f">owner only</text>
</g>
<!-- observation&#45;&gt;private_graph -->
<g id="edge8" class="edge">
<title>observation&#45;&gt;private_graph</title>
<path fill="none" stroke="#63708a" stroke-width="1.2" d="M309.61,-700.05C340.29,-688.21 369.05,-668.57 369.05,-636.5 369.05,-636.5 369.05,-636.5 369.05,-387.3 369.05,-362.12 352.02,-339.33 335.26,-322.99"/>
<polygon fill="#63708a" stroke="#63708a" stroke-width="1.2" points="337.25,-321.5 330.46,-318.51 333.91,-325.08 337.25,-321.5"/>
</g>
<!-- recommendation -->
<g id="node5" class="node">
<title>recommendation</title>
<path fill="#ffffff" stroke="#d9e0ef" d="M159.23,-573.8C159.23,-573.8 40.88,-573.8 40.88,-573.8 34.88,-573.8 28.88,-567.8 28.88,-561.8 28.88,-561.8 28.88,-544.4 28.88,-544.4 28.88,-538.4 34.88,-532.4 40.88,-532.4 40.88,-532.4 159.23,-532.4 159.23,-532.4 165.23,-532.4 171.23,-538.4 171.23,-544.4 171.23,-544.4 171.23,-561.8 171.23,-561.8 171.23,-567.8 165.23,-573.8 159.23,-573.8"/>
<text xml:space="preserve" text-anchor="middle" x="100.05" y="-556.15" font-family="Arial" font-size="11.00" fill="#10172f">Recommendation</text>
<text xml:space="preserve" text-anchor="middle" x="100.05" y="-542.65" font-family="Arial" font-size="11.00" fill="#10172f">contestable and bounded</text>
</g>
<!-- inference&#45;&gt;recommendation -->
<g id="edge4" class="edge">
<title>inference&#45;&gt;recommendation</title>
<path fill="none" stroke="#63708a" stroke-width="1.2" d="M95.53,-614.63C96.25,-604.96 97.13,-593.17 97.93,-582.57"/>
<polygon fill="#63708a" stroke="#63708a" stroke-width="1.2" points="100.35,-583 98.43,-575.84 95.46,-582.63 100.35,-583"/>
</g>
<!-- human -->
<g id="node6" class="node">
<title>human</title>
<path fill="#eaf9ff" stroke="#23b8ff" d="M175.23,-491.4C175.23,-491.4 32.88,-491.4 32.88,-491.4 26.88,-491.4 20.88,-485.4 20.88,-479.4 20.88,-479.4 20.88,-462 20.88,-462 20.88,-456 26.88,-450 32.88,-450 32.88,-450 175.23,-450 175.23,-450 181.23,-450 187.23,-456 187.23,-462 187.23,-462 187.23,-479.4 187.23,-479.4 187.23,-485.4 181.23,-491.4 175.23,-491.4"/>
<text xml:space="preserve" text-anchor="middle" x="104.05" y="-473.75" font-family="Arial" font-size="11.00" fill="#10172f">Human decision</text>
<text xml:space="preserve" text-anchor="middle" x="104.05" y="-460.25" font-family="Arial" font-size="11.00" fill="#10172f">learner or authorized educator</text>
</g>
<!-- recommendation&#45;&gt;human -->
<g id="edge5" class="edge">
<title>recommendation&#45;&gt;human</title>
<path fill="none" stroke="#63708a" stroke-width="1.2" d="M101.04,-532.23C101.52,-522.56 102.11,-510.77 102.63,-500.17"/>
<polygon fill="#63708a" stroke="#63708a" stroke-width="1.2" points="105.07,-500.55 102.97,-493.44 100.17,-500.31 105.07,-500.55"/>
</g>
<!-- correction -->
<g id="node7" class="node">
<title>correction</title>
<path fill="#f4f1e8" stroke="#ffc857" d="M304.48,-409C304.48,-409 169.62,-409 169.62,-409 163.62,-409 157.62,-403 157.62,-397 157.62,-397 157.62,-379.6 157.62,-379.6 157.62,-373.6 163.62,-367.6 169.62,-367.6 169.62,-367.6 304.48,-367.6 304.48,-367.6 310.48,-367.6 316.48,-373.6 316.48,-379.6 316.48,-379.6 316.48,-397 316.48,-397 316.48,-403 310.48,-409 304.48,-409"/>
<text xml:space="preserve" text-anchor="middle" x="237.05" y="-391.35" font-family="Arial" font-size="11.00" fill="#10172f">Accept, reformulate, contest,</text>
<text xml:space="preserve" text-anchor="middle" x="237.05" y="-377.85" font-family="Arial" font-size="11.00" fill="#10172f">expire, export or delete</text>
</g>
<!-- human&#45;&gt;correction -->
<g id="edge6" class="edge">
<title>human&#45;&gt;correction</title>
<path fill="none" stroke="#63708a" stroke-width="1.2" d="M137.27,-449.62C155.2,-438.78 177.48,-425.31 196.44,-413.85"/>
<polygon fill="#63708a" stroke="#63708a" stroke-width="1.2" points="197.52,-416.06 202.24,-410.34 194.98,-411.87 197.52,-416.06"/>
</g>
<!-- correction&#45;&gt;observation -->
<g id="edge7" class="edge">
<title>correction&#45;&gt;observation</title>
<path fill="none" stroke="#63708a" stroke-width="1.2" d="M237.05,-409.46C237.05,-425.72 237.05,-449.18 237.05,-469.7 237.05,-636.5 237.05,-636.5 237.05,-636.5 237.05,-653.65 237.05,-672.86 237.05,-688.2"/>
<polygon fill="#63708a" stroke="#63708a" stroke-width="1.2" points="234.6,-687.93 237.05,-694.93 239.5,-687.93 234.6,-687.93"/>
<text xml:space="preserve" text-anchor="middle" x="278.68" y="-549.8" font-family="Arial" font-size="9.00" fill="#44506a">corrects provenance</text>
</g>
<!-- correction&#45;&gt;private_graph -->
<g id="edge12" class="edge">
<title>correction&#45;&gt;private_graph</title>
<path fill="none" stroke="#63708a" stroke-width="1.2" d="M251.7,-367.35C261.01,-354.66 273.19,-338.08 283.34,-324.25"/>
<polygon fill="#63708a" stroke="#63708a" stroke-width="1.2" points="285.2,-325.85 287.37,-318.76 281.25,-322.95 285.2,-325.85"/>
<text xml:space="preserve" text-anchor="middle" x="303.53" y="-339.05" font-family="Arial" font-size="9.00" fill="#44506a">lifecycle control</text>
</g>
<!-- teacher_projection -->
<g id="node9" class="node">
<title>teacher_projection</title>
<path fill="#ffffff" stroke="#d9e0ef" d="M390.73,-225.2C390.73,-225.2 215.38,-225.2 215.38,-225.2 209.38,-225.2 203.38,-219.2 203.38,-213.2 203.38,-213.2 203.38,-195.8 203.38,-195.8 203.38,-189.8 209.38,-183.8 215.38,-183.8 215.38,-183.8 390.73,-183.8 390.73,-183.8 396.73,-183.8 402.73,-189.8 402.73,-195.8 402.73,-195.8 402.73,-213.2 402.73,-213.2 402.73,-219.2 396.73,-225.2 390.73,-225.2"/>
<text xml:space="preserve" text-anchor="middle" x="303.05" y="-207.55" font-family="Arial" font-size="11.00" fill="#10172f">Course&#45;authorized teacher projection</text>
<text xml:space="preserve" text-anchor="middle" x="303.05" y="-194.05" font-family="Arial" font-size="11.00" fill="#10172f">no raw graph</text>
</g>
<!-- private_graph&#45;&gt;teacher_projection -->
<g id="edge9" class="edge">
<title>private_graph&#45;&gt;teacher_projection</title>
<path fill="none" stroke="#63708a" stroke-width="1.2" d="M303.05,-275.45C303.05,-263.23 303.05,-247.39 303.05,-233.88"/>
<polygon fill="#63708a" stroke="#63708a" stroke-width="1.2" points="305.5,-234.21 303.05,-227.21 300.6,-234.21 305.5,-234.21"/>
<text xml:space="preserve" text-anchor="middle" x="348.8" y="-247.15" font-family="Arial" font-size="9.00" fill="#44506a">active sharing consent</text>
</g>
<!-- school_aggregate -->
<g id="node10" class="node">
<title>school_aggregate</title>
<path fill="#ffffff" stroke="#d9e0ef" d="M362.98,-133.3C362.98,-133.3 243.12,-133.3 243.12,-133.3 237.12,-133.3 231.12,-127.3 231.12,-121.3 231.12,-121.3 231.12,-103.9 231.12,-103.9 231.12,-97.9 237.12,-91.9 243.12,-91.9 243.12,-91.9 362.98,-91.9 362.98,-91.9 368.98,-91.9 374.98,-97.9 374.98,-103.9 374.98,-103.9 374.98,-121.3 374.98,-121.3 374.98,-127.3 368.98,-133.3 362.98,-133.3"/>
<text xml:space="preserve" text-anchor="middle" x="303.05" y="-115.65" font-family="Arial" font-size="11.00" fill="#10172f">School aggregate</text>
<text xml:space="preserve" text-anchor="middle" x="303.05" y="-102.15" font-family="Arial" font-size="11.00" fill="#10172f">cohort threshold enforced</text>
</g>
<!-- teacher_projection&#45;&gt;school_aggregate -->
<g id="edge10" class="edge">
<title>teacher_projection&#45;&gt;school_aggregate</title>
<path fill="none" stroke="#63708a" stroke-width="1.2" d="M303.05,-183.55C303.05,-171.33 303.05,-155.49 303.05,-141.98"/>
<polygon fill="#63708a" stroke="#63708a" stroke-width="1.2" points="305.5,-142.31 303.05,-135.31 300.6,-142.31 305.5,-142.31"/>
<text xml:space="preserve" text-anchor="middle" x="333.8" y="-155.25" font-family="Arial" font-size="9.00" fill="#44506a">aggregate only</text>
</g>
<!-- commission_aggregate -->
<g id="node11" class="node">
<title>commission_aggregate</title>
<path fill="#ffffff" stroke="#d9e0ef" d="M364.1,-41.4C364.1,-41.4 242,-41.4 242,-41.4 236,-41.4 230,-35.4 230,-29.4 230,-29.4 230,-12 230,-12 230,-6 236,0 242,0 242,0 364.1,0 364.1,0 370.1,0 376.1,-6 376.1,-12 376.1,-12 376.1,-29.4 376.1,-29.4 376.1,-35.4 370.1,-41.4 364.1,-41.4"/>
<text xml:space="preserve" text-anchor="middle" x="303.05" y="-23.75" font-family="Arial" font-size="11.00" fill="#10172f">Commission aggregate</text>
<text xml:space="preserve" text-anchor="middle" x="303.05" y="-10.25" font-family="Arial" font-size="11.00" fill="#10172f">anti&#45;reconstruction checks</text>
</g>
<!-- school_aggregate&#45;&gt;commission_aggregate -->
<g id="edge11" class="edge">
<title>school_aggregate&#45;&gt;commission_aggregate</title>
<path fill="none" stroke="#63708a" stroke-width="1.2" d="M303.05,-91.65C303.05,-79.43 303.05,-63.59 303.05,-50.08"/>
<polygon fill="#63708a" stroke="#63708a" stroke-width="1.2" points="305.5,-50.41 303.05,-43.41 300.6,-50.41 305.5,-50.41"/>
<text xml:space="preserve" text-anchor="middle" x="333.8" y="-63.35" font-family="Arial" font-size="9.00" fill="#44506a">aggregate only</text>
</g>
</g>
</svg>
