<?xml version="1.0" encoding="UTF-8" standalone="no"?>
<!DOCTYPE svg PUBLIC "-//W3C//DTD SVG 1.1//EN"
 "http://www.w3.org/Graphics/SVG/1.1/DTD/svg11.dtd">
<!-- Generated by graphviz version 15.1.0 (20260618.0150)
 -->
<!-- Title: ScholariumAssistants Pages: 1 -->
<svg width="468pt" height="681pt"
 viewBox="0.00 0.00 468.00 681.00" xmlns="http://www.w3.org/2000/svg" xmlns:xlink="http://www.w3.org/1999/xlink">
<g id="graph0" class="graph" transform="scale(1 1) rotate(0) translate(18 663.4)">
<title>ScholariumAssistants</title>
<polygon fill="#f7f8fc" stroke="none" points="-18,18 -18,-663.4 450.06,-663.4 450.06,18 -18,18"/>
<!-- learner -->
<g id="node1" class="node">
<title>learner</title>
<path fill="#eaf9ff" stroke="#23b8ff" d="M280.28,-645.4C280.28,-645.4 246.62,-645.4 246.62,-645.4 240.62,-645.4 234.62,-639.4 234.62,-633.4 234.62,-633.4 234.62,-621.4 234.62,-621.4 234.62,-615.4 240.62,-609.4 246.62,-609.4 246.62,-609.4 280.28,-609.4 280.28,-609.4 286.28,-609.4 292.28,-615.4 292.28,-621.4 292.28,-621.4 292.28,-633.4 292.28,-633.4 292.28,-639.4 286.28,-645.4 280.28,-645.4"/>
<text xml:space="preserve" text-anchor="middle" x="263.45" y="-623.7" font-family="Arial" font-size="11.00" fill="#10172f">Learner</text>
</g>
<!-- learner_ai -->
<g id="node2" class="node">
<title>learner_ai</title>
<path fill="#eef3ff" stroke="#2157ee" d="M356.78,-558.9C356.78,-558.9 170.12,-558.9 170.12,-558.9 164.12,-558.9 158.12,-552.9 158.12,-546.9 158.12,-546.9 158.12,-529.5 158.12,-529.5 158.12,-523.5 164.12,-517.5 170.12,-517.5 170.12,-517.5 356.78,-517.5 356.78,-517.5 362.78,-517.5 368.78,-523.5 368.78,-529.5 368.78,-529.5 368.78,-546.9 368.78,-546.9 368.78,-552.9 362.78,-558.9 356.78,-558.9"/>
<text xml:space="preserve" text-anchor="middle" x="263.45" y="-541.25" font-family="Arial" font-size="11.00" fill="#10172f">Private learner assistant</text>
<text xml:space="preserve" text-anchor="middle" x="263.45" y="-527.75" font-family="Arial" font-size="11.00" fill="#10172f">owner graph + objectives + preferences</text>
</g>
<!-- learner&#45;&gt;learner_ai -->
<g id="edge1" class="edge">
<title>learner&#45;&gt;learner_ai</title>
<path fill="none" stroke="#63708a" stroke-width="1.2" d="M263.45,-609.17C263.45,-597.36 263.45,-581.42 263.45,-567.74"/>
<polygon fill="#63708a" stroke="#63708a" stroke-width="1.2" points="265.91,-567.96 263.46,-560.96 261.01,-567.96 265.91,-567.96"/>
<text xml:space="preserve" text-anchor="middle" x="279.58" y="-580.85" font-family="Arial" font-size="9.00" fill="#44506a">controls</text>
</g>
<!-- consent -->
<g id="node3" class="node">
<title>consent</title>
<path fill="#ffffff" stroke="#d9e0ef" d="M255.03,-467C255.03,-467 129.88,-467 129.88,-467 123.88,-467 117.87,-461 117.87,-455 117.87,-455 117.87,-437.6 117.87,-437.6 117.87,-431.6 123.87,-425.6 129.88,-425.6 129.88,-425.6 255.03,-425.6 255.03,-425.6 261.03,-425.6 267.03,-431.6 267.03,-437.6 267.03,-437.6 267.03,-455 267.03,-455 267.03,-461 261.03,-467 255.03,-467"/>
<text xml:space="preserve" text-anchor="middle" x="192.45" y="-449.35" font-family="Arial" font-size="11.00" fill="#10172f">Purpose + sharing consent</text>
<text xml:space="preserve" text-anchor="middle" x="192.45" y="-435.85" font-family="Arial" font-size="11.00" fill="#10172f">active enrollment + expiry</text>
</g>
<!-- learner_ai&#45;&gt;consent -->
<g id="edge2" class="edge">
<title>learner_ai&#45;&gt;consent</title>
<path fill="none" stroke="#63708a" stroke-width="1.2" d="M246.49,-517.15C241.28,-510.9 235.58,-503.96 230.45,-497.5 224.53,-490.03 218.22,-481.81 212.49,-474.23"/>
<polygon fill="#63708a" stroke="#63708a" stroke-width="1.2" points="214.67,-473.06 208.5,-468.94 210.76,-476.01 214.67,-473.06"/>
<text xml:space="preserve" text-anchor="middle" x="269.45" y="-488.95" font-family="Arial" font-size="9.00" fill="#44506a">requests projection</text>
</g>
<!-- deny -->
<g id="node10" class="node">
<title>deny</title>
<path fill="#fff0f0" stroke="#c85151" d="M418.53,-375.1C418.53,-375.1 248.38,-375.1 248.38,-375.1 242.38,-375.1 236.38,-369.1 236.38,-363.1 236.38,-363.1 236.38,-345.7 236.38,-345.7 236.38,-339.7 242.38,-333.7 248.38,-333.7 248.38,-333.7 418.53,-333.7 418.53,-333.7 424.53,-333.7 430.53,-339.7 430.53,-345.7 430.53,-345.7 430.53,-363.1 430.53,-363.1 430.53,-369.1 424.53,-375.1 418.53,-375.1"/>
<text xml:space="preserve" text-anchor="middle" x="333.45" y="-357.45" font-family="Arial" font-size="11.00" fill="#10172f">Denied: raw answers, private graph,</text>
<text xml:space="preserve" text-anchor="middle" x="333.45" y="-343.95" font-family="Arial" font-size="11.00" fill="#10172f">diagnostic labels, small cohorts</text>
</g>
<!-- learner_ai&#45;&gt;deny -->
<g id="edge10" class="edge">
<title>learner_ai&#45;&gt;deny</title>
<path fill="none" stroke="#63708a" stroke-width="1.2" stroke-dasharray="5,2" d="M295.44,-517.07C302.02,-511.5 308.22,-504.92 312.45,-497.5 332.61,-462.16 335.6,-414.16 335.13,-383.99"/>
<polygon fill="#63708a" stroke="#63708a" stroke-width="1.2" points="337.58,-383.97 334.93,-377.04 332.68,-384.11 337.58,-383.97"/>
<text xml:space="preserve" text-anchor="middle" x="382.56" y="-443" font-family="Arial" font-size="9.00" fill="#44506a">never exports raw graph</text>
</g>
<!-- exchange -->
<g id="node4" class="node">
<title>exchange</title>
<path fill="#f2eeff" stroke="#6f42ff" d="M191.16,-375.1C191.16,-375.1 33.75,-375.1 33.75,-375.1 27.75,-375.1 21.75,-369.1 21.75,-363.1 21.75,-363.1 21.75,-345.7 21.75,-345.7 21.75,-339.7 27.75,-333.7 33.75,-333.7 33.75,-333.7 191.16,-333.7 191.16,-333.7 197.16,-333.7 203.16,-339.7 203.16,-345.7 203.16,-345.7 203.16,-363.1 203.16,-363.1 203.16,-369.1 197.16,-375.1 191.16,-375.1"/>
<text xml:space="preserve" text-anchor="middle" x="112.45" y="-357.45" font-family="Arial" font-size="11.00" fill="#10172f">scholarium.assistant&#45;exchange.v1</text>
<text xml:space="preserve" text-anchor="middle" x="112.45" y="-343.95" font-family="Arial" font-size="11.00" fill="#10172f">idempotent projection + receipt</text>
</g>
<!-- consent&#45;&gt;exchange -->
<g id="edge3" class="edge">
<title>consent&#45;&gt;exchange</title>
<path fill="none" stroke="#63708a" stroke-width="1.2" d="M174.7,-425.35C163.31,-412.55 148.38,-395.78 136.01,-381.86"/>
<polygon fill="#63708a" stroke="#63708a" stroke-width="1.2" points="137.85,-380.25 131.37,-376.65 134.19,-383.51 137.85,-380.25"/>
<text xml:space="preserve" text-anchor="middle" x="164.6" y="-397.05" font-family="Arial" font-size="9.00" fill="#44506a">valid</text>
</g>
<!-- consent&#45;&gt;deny -->
<g id="edge9" class="edge">
<title>consent&#45;&gt;deny</title>
<path fill="none" stroke="#c85151" stroke-width="1.2" d="M207.16,-425.23C215.34,-415.16 226.23,-403.37 237.95,-395.1 246.47,-389.1 256.02,-383.78 265.71,-379.14"/>
<polygon fill="#c85151" stroke="#c85151" stroke-width="1.2" points="266.51,-381.47 271.84,-376.32 264.46,-377.02 266.51,-381.47"/>
<text xml:space="preserve" text-anchor="middle" x="273.2" y="-397.05" font-family="Arial" font-size="9.00" fill="#44506a">invalid or expired</text>
</g>
<!-- teacher_ai -->
<g id="node5" class="node">
<title>teacher_ai</title>
<path fill="#ffffff" stroke="#d9e0ef" d="M188.53,-292.7C188.53,-292.7 36.38,-292.7 36.38,-292.7 30.38,-292.7 24.37,-286.7 24.37,-280.7 24.37,-280.7 24.37,-263.3 24.37,-263.3 24.37,-257.3 30.37,-251.3 36.37,-251.3 36.37,-251.3 188.53,-251.3 188.53,-251.3 194.53,-251.3 200.53,-257.3 200.53,-263.3 200.53,-263.3 200.53,-280.7 200.53,-280.7 200.53,-286.7 194.53,-292.7 188.53,-292.7"/>
<text xml:space="preserve" text-anchor="middle" x="112.45" y="-275.05" font-family="Arial" font-size="11.00" fill="#10172f">Teacher assistant</text>
<text xml:space="preserve" text-anchor="middle" x="112.45" y="-261.55" font-family="Arial" font-size="11.00" fill="#10172f">course&#45;authorized summary only</text>
</g>
<!-- exchange&#45;&gt;teacher_ai -->
<g id="edge4" class="edge">
<title>exchange&#45;&gt;teacher_ai</title>
<path fill="none" stroke="#63708a" stroke-width="1.2" d="M112.45,-333.53C112.45,-323.86 112.45,-312.07 112.45,-301.47"/>
<polygon fill="#63708a" stroke="#63708a" stroke-width="1.2" points="114.91,-301.74 112.46,-294.74 110.01,-301.74 114.91,-301.74"/>
</g>
<!-- teacher -->
<g id="node6" class="node">
<title>teacher</title>
<path fill="#eaf9ff" stroke="#23b8ff" d="M104.91,-198.1C104.91,-198.1 12,-198.1 12,-198.1 6,-198.1 0,-192.1 0,-186.1 0,-186.1 0,-174.1 0,-174.1 0,-168.1 6,-162.1 12,-162.1 12,-162.1 104.91,-162.1 104.91,-162.1 110.91,-162.1 116.91,-168.1 116.91,-174.1 116.91,-174.1 116.91,-186.1 116.91,-186.1 116.91,-192.1 110.91,-198.1 104.91,-198.1"/>
<text xml:space="preserve" text-anchor="middle" x="58.45" y="-176.4" font-family="Arial" font-size="11.00" fill="#10172f">Authorized educator</text>
</g>
<!-- teacher_ai&#45;&gt;teacher -->
<g id="edge5" class="edge">
<title>teacher_ai&#45;&gt;teacher</title>
<path fill="none" stroke="#63708a" stroke-width="1.2" d="M94.92,-251.13C89.98,-245.01 84.83,-238.09 80.7,-231.3 76,-223.56 71.73,-214.65 68.21,-206.51"/>
<polygon fill="#63708a" stroke="#63708a" stroke-width="1.2" points="70.48,-205.58 65.53,-200.06 65.95,-207.46 70.48,-205.58"/>
<text xml:space="preserve" text-anchor="middle" x="115.58" y="-222.75" font-family="Arial" font-size="9.00" fill="#44506a">bounded support</text>
</g>
<!-- aggregate -->
<g id="node7" class="node">
<title>aggregate</title>
<path fill="#ffffff" stroke="#d9e0ef" d="M270.78,-200.8C270.78,-200.8 162.12,-200.8 162.12,-200.8 156.12,-200.8 150.12,-194.8 150.12,-188.8 150.12,-188.8 150.12,-171.4 150.12,-171.4 150.12,-165.4 156.12,-159.4 162.12,-159.4 162.12,-159.4 270.78,-159.4 270.78,-159.4 276.78,-159.4 282.78,-165.4 282.78,-171.4 282.78,-171.4 282.78,-188.8 282.78,-188.8 282.78,-194.8 276.78,-200.8 270.78,-200.8"/>
<text xml:space="preserve" text-anchor="middle" x="216.45" y="-183.15" font-family="Arial" font-size="11.00" fill="#10172f">Organization aggregate</text>
<text xml:space="preserve" text-anchor="middle" x="216.45" y="-169.65" font-family="Arial" font-size="11.00" fill="#10172f">minimum cohort: 10</text>
</g>
<!-- teacher_ai&#45;&gt;aggregate -->
<g id="edge6" class="edge">
<title>teacher_ai&#45;&gt;aggregate</title>
<path fill="none" stroke="#63708a" stroke-width="1.2" d="M135.79,-250.82C150.92,-237.75 170.74,-220.62 186.95,-206.61"/>
<polygon fill="#63708a" stroke="#63708a" stroke-width="1.2" points="188.13,-208.83 191.82,-202.4 184.92,-205.12 188.13,-208.83"/>
<text xml:space="preserve" text-anchor="middle" x="218.2" y="-222.75" font-family="Arial" font-size="9.00" fill="#44506a">de&#45;identified contribution</text>
</g>
<!-- admin_ai -->
<g id="node8" class="node">
<title>admin_ai</title>
<path fill="#ffffff" stroke="#d9e0ef" d="M270.78,-118.4C270.78,-118.4 162.12,-118.4 162.12,-118.4 156.12,-118.4 150.12,-112.4 150.12,-106.4 150.12,-106.4 150.12,-89 150.12,-89 150.12,-83 156.12,-77 162.12,-77 162.12,-77 270.78,-77 270.78,-77 276.78,-77 282.78,-83 282.78,-89 282.78,-89 282.78,-106.4 282.78,-106.4 282.78,-112.4 276.78,-118.4 270.78,-118.4"/>
<text xml:space="preserve" text-anchor="middle" x="216.45" y="-100.75" font-family="Arial" font-size="11.00" fill="#10172f">Administrative assistant</text>
<text xml:space="preserve" text-anchor="middle" x="216.45" y="-87.25" font-family="Arial" font-size="11.00" fill="#10172f">aggregates only</text>
</g>
<!-- aggregate&#45;&gt;admin_ai -->
<g id="edge7" class="edge">
<title>aggregate&#45;&gt;admin_ai</title>
<path fill="none" stroke="#63708a" stroke-width="1.2" d="M216.45,-159.23C216.45,-149.56 216.45,-137.77 216.45,-127.17"/>
<polygon fill="#63708a" stroke="#63708a" stroke-width="1.2" points="218.91,-127.44 216.46,-120.44 214.01,-127.44 218.91,-127.44"/>
</g>
<!-- admin -->
<g id="node9" class="node">
<title>admin</title>
<path fill="#eaf9ff" stroke="#23b8ff" d="M273.03,-36C273.03,-36 159.88,-36 159.88,-36 153.88,-36 147.88,-30 147.88,-24 147.88,-24 147.88,-12 147.88,-12 147.88,-6 153.88,0 159.88,0 159.88,0 273.03,0 273.03,0 279.03,0 285.03,-6 285.03,-12 285.03,-12 285.03,-24 285.03,-24 285.03,-30 279.03,-36 273.03,-36"/>
<text xml:space="preserve" text-anchor="middle" x="216.45" y="-14.3" font-family="Arial" font-size="11.00" fill="#10172f">Authorized administrator</text>
</g>
<!-- admin_ai&#45;&gt;admin -->
<g id="edge8" class="edge">
<title>admin_ai&#45;&gt;admin</title>
<path fill="none" stroke="#63708a" stroke-width="1.2" d="M216.45,-76.69C216.45,-67.02 216.45,-55.3 216.45,-44.95"/>
<polygon fill="#63708a" stroke="#63708a" stroke-width="1.2" points="218.91,-45.12 216.46,-38.12 214.01,-45.12 218.91,-45.12"/>
</g>
</g>
</svg>
